<svg width="17" height="17" viewBox="0 0 17 17" fill="none" xmlns="http://www.w3.org/2000/svg">
<path fill-rule="evenodd" clip-rule="evenodd" d="M1.82925 0.293005C1.43872 -0.0975188 0.805556 -0.0975191 0.415032 0.293005L0.292883 0.415154C-0.097641 0.805678 -0.0976402 1.43884 0.292884 1.82937L6.4994 8.03589L0.292884 14.2424C-0.0976401 14.6329 -0.0976409 15.2661 0.292883 15.6566L0.415032 15.7788C0.805556 16.1693 1.43872 16.1693 1.82925 15.7788L8.03577 9.57225L14.2423 15.7788C14.6328 16.1693 15.266 16.1693 15.6565 15.7788L15.7787 15.6566C16.1692 15.2661 16.1692 14.6329 15.7786 14.2424L9.57213 8.03589L15.7786 1.82937C16.1692 1.43884 16.1692 0.805678 15.7787 0.415154L15.6565 0.293005C15.266 -0.0975191 14.6328 -0.0975188 14.2423 0.293005L8.03577 6.49953L1.82925 0.293005Z" fill="white"/>
</svg>
